HIERARCHY
ROOT Hips
{
  OFFSET 0 89.5177 0.535
  CHANNELS 6 Xposition Yposition Zposition Zrotation Xrotation Yrotation
  JOINT Spine
  {
    OFFSET 12.0259 -0.162855 1.69034e-005
    CHANNELS 3 Zrotation Xrotation Yrotation
    JOINT Spine1
    {
      OFFSET 15.3169 -0.0121922 0
      CHANNELS 3 Zrotation Xrotation Yrotation
      JOINT Spine2
      {
        OFFSET 15.3176 -0.0121908 0
        CHANNELS 3 Zrotation Xrotation Yrotation
        JOINT Neck
        {
          OFFSET 19.9142 1.56338 0
          CHANNELS 3 Zrotation Xrotation Yrotation
          JOINT Head
          {
            OFFSET 6.92651 0 0
            CHANNELS 3 Zrotation Xrotation Yrotation
            End Site
            {
              OFFSET 20.7666 0 0
            }
          }
          JOINT LeftShoulder
          {
            OFFSET -6.20654 0.708824 7.28219
            CHANNELS 3 Zrotation Xrotation Yrotation
            JOINT LeftArm
            {
              OFFSET 14.108 0 -1.52588e-005
              CHANNELS 3 Zrotation Xrotation Yrotation
              JOINT LeftForeArm
              {
                OFFSET 28.5802 0 0
                CHANNELS 3 Zrotation Xrotation Yrotation
                JOINT LeftHand
                {
                  OFFSET 27.092 0 0
                  CHANNELS 3 Zrotation Xrotation Yrotation
                  End Site
                  {
                    OFFSET 9.55928 -0.186424 0.145352
                  }
                }
              }
            }
          }
          JOINT RightShoulder
          {
            OFFSET -6.20654 0.708866 -7.28218
            CHANNELS 3 Zrotation Xrotation Yrotation
            JOINT RightArm
            {
              OFFSET 14.108 0 1.52588e-005
              CHANNELS 3 Zrotation Xrotation Yrotation
              JOINT RightForeArm
              {
                OFFSET 28.5802 0 0
                CHANNELS 3 Zrotation Xrotation Yrotation
                JOINT RightHand
                {
                  OFFSET 27.092 0 0
                  CHANNELS 3 Zrotation Xrotation Yrotation
                  End Site
                  {
                    OFFSET 9.55929 -0.186417 -0.145354
                  }
                }
              }
            }
          }
        }
      }
    }
  }
  JOINT LeftUpLeg
  {
    OFFSET 0.005 -0.535 8.837
    CHANNELS 3 Zrotation Xrotation Yrotation
    JOINT LeftLeg
    {
      OFFSET 39.9035 0 0
      CHANNELS 3 Zrotation Xrotation Yrotation
      JOINT LeftFoot
      {
        OFFSET 39.6689 0 0
        CHANNELS 3 Zrotation Xrotation Yrotation
        JOINT LeftToe
        {
          OFFSET 10.1624 13.6296 0
          CHANNELS 3 Zrotation Xrotation Yrotation
          End Site
          {
            OFFSET 8.38147 0 0
          }
        }
      }
    }
  }
  JOINT RightUpLeg
  {
    OFFSET 0.005 -0.535 -8.837
    CHANNELS 3 Zrotation Xrotation Yrotation
    JOINT RightLeg
    {
      OFFSET 39.9035 0 0
      CHANNELS 3 Zrotation Xrotation Yrotation
      JOINT RightFoot
      {
        OFFSET 39.6689 0 0
        CHANNELS 3 Zrotation Xrotation Yrotation
        JOINT RightToe
        {
          OFFSET 10.1624 13.6296 0
          CHANNELS 3 Zrotation Xrotation Yrotation
          End Site
          {
            OFFSET 8.38147 0 0
          }
        }
      }
    }
  }
}
MOTION
Frames:	9
Frame Time:	0.0333333
209.662 88.1983 -167.382 -166.887 -84.5088 104.045 -1.01043 -1.39471 -0.920772 -2.04403 -2.77231 -1.86665 -2.04403 -2.77231 -1.86666 -8.30738e-012 -9.0191e-006 -5.27751e-005 18.1947 2.14151 0.0480773 -176.973 -28.161 -83.6071 -29.3867 -42.4359 3.21036 -10.1494 -9.54166e-015 1.59028e-015 -27.7534 -54.5279 -31.2098 -178.623 20.0208 85.9851 -33.5219 39.167 -1.34208 -6.66163 -3.18055e-015 7.95139e-016 -64.0608 68.4339 67.1251 -3.03771 12.0391 179.069 -12.6353 0 -3.97569e-016 14.7423 4.14736 -2.10708 90 1.33558e-016 -7.95139e-016 -9.6487 -7.26982 175.142 -18.0424 -1.59028e-015 -3.97569e-016 14.1534 -4.54111 3.44934 90 -1.08058e-020 7.95139e-016 
209.648 88.1973 -167.393 -166.673 -84.5068 104.254 -1.00868 -1.38922 -0.922771 -2.04049 -2.76133 -1.8705 -2.04049 -2.76133 -1.87051 -8.30738e-012 -9.0191e-006 -5.27751e-005 18.2908 2.10478 0.0177495 -176.971 -28.0953 -83.5894 -29.3023 -42.4717 3.28249 -10.2156 6.36111e-015 4.77083e-015 -28.2543 -54.4306 -31.7223 -178.62 20.0309 85.977 -33.5196 39.2014 -1.452 -6.66446 2.54444e-014 7.95139e-016 -64.1013 68.4276 67.1689 -3.03719 12.0693 179.064 -12.655 0 -0 14.7596 4.14975 -2.10681 90 -2.14315e-016 -2.38542e-015 -9.65133 -7.27257 175.138 -18.0429 3.18056e-015 7.95139e-016 14.1504 -4.57354 3.45863 90 -1.84836e-021 2.38542e-015 
209.63 88.1933 -167.405 -166.416 -84.5365 104.508 -0.995973 -1.38175 -0.923519 -2.01492 -2.74654 -1.8718 -2.01492 -2.74654 -1.87181 -8.30728e-012 -9.0191e-006 -5.27751e-005 18.3216 2.04173 -0.0162817 -176.965 -28.0854 -83.575 -29.3243 -42.4596 3.36213 -10.1877 -3.18055e-015 3.18055e-015 -28.0824 -54.4879 -31.5497 -178.592 20.0591 85.9 -33.5284 39.0891 -1.489 -6.6892 0 1.59028e-015 -64.0793 68.4372 67.1465 -3.00531 12.0731 179.063 -12.6849 1.59028e-015 -3.97569e-016 14.7873 4.15152 -2.10331 90 1.55301e-017 7.95139e-016 -9.61823 -7.26336 175.131 -18.0623 -1.59028e-015 1.59028e-015 14.1681 -4.56655 3.46837 90 -2.64458e-020 7.95139e-016 
209.608 88.189 -167.416 -166.234 -84.5462 104.688 -0.985738 -1.38647 -0.924214 -1.99458 -2.75616 -1.873 -1.99458 -2.75616 -1.87301 -8.30718e-012 -9.0191e-006 -5.27751e-005 18.32 2.07891 -0.0672587 -176.95 -28.1194 -83.5491 -29.3414 -42.4687 3.43697 -10.1109 3.18055e-015 -3.18055e-015 -27.9359 -54.4623 -31.3926 -178.601 19.9965 85.9167 -33.4519 39.0845 -1.60492 -6.68072 -6.36111e-015 -1.59028e-015 -64.0756 68.4288 67.1441 -2.9977 12.0835 179.041 -12.7235 0 -3.97569e-016 14.8185 4.15339 -2.08283 90 4.7522e-016 -0 -9.61268 -7.24337 175.105 -18.0779 3.18056e-015 1.19271e-015 14.1779 -4.57934 3.49841 90 -1.90524e-020 1.59028e-015 
209.587 88.1868 -167.429 -166.321 -84.5512 104.599 -0.97843 -1.38585 -0.924786 -1.97991 -2.75501 -1.87395 -1.97991 -2.755 -1.87396 -8.30758e-012 -9.0191e-006 -5.27751e-005 18.3138 2.0791 -0.0415459 -176.953 -28.0851 -83.5497 -29.2957 -42.5753 3.55157 -10.1094 -6.36111e-015 -3.18055e-015 -28.2566 -54.4604 -31.7285 -178.59 19.9949 85.882 -33.3901 39.1093 -1.69791 -6.65345 0 -0 -64.0136 68.4609 67.0804 -2.99543 12.0914 179.03 -12.746 0 3.97569e-016 14.8397 4.15481 -2.08247 90 -1.83255e-016 -0 -9.59503 -7.25109 175.091 -18.0712 1.59028e-015 7.95139e-016 14.1866 -4.57065 3.51519 90 -6.39818e-021 7.95139e-016 
209.563 88.1851 -167.433 -166.442 -84.5364 104.477 -0.981064 -1.38834 -0.925177 -1.9854 -2.76303 -1.8746 -1.9854 -2.76303 -1.8746 -8.30798e-012 -9.0191e-006 -5.27751e-005 18.3389 2.09485 -0.0600954 -176.945 -28.0704 -83.5297 -29.2514 -42.5292 3.6306 -10.0694 6.36111e-015 -3.18055e-015 -28.1442 -54.4679 -31.6117 -178.586 19.9524 85.8634 -33.2761 38.917 -1.77962 -6.68724 9.54166e-015 7.95139e-016 -63.9737 68.4814 67.0393 -3.02312 12.0911 179.023 -12.7721 0 -7.95139e-016 14.8547 4.15538 -2.08067 90 -1.83255e-016 -0 -9.60502 -7.24839 175.08 -18.0689 1.59028e-015 7.95139e-016 14.1916 -4.56088 3.52787 90 -2.59719e-020 -2.38542e-015 
209.535 88.1838 -167.438 -166.645 -84.5474 104.286 -0.977072 -1.39359 -0.925323 -1.96838 -2.77273 -1.87484 -1.96838 -2.77273 -1.87485 -8.30758e-012 -9.0191e-006 -5.27751e-005 18.3704 2.05483 -0.0307909 -176.935 -28.0809 -83.5098 -29.2533 -42.5553 3.71218 -10.0304 0 -6.36111e-015 -28.0585 -54.4638 -31.5213 -178.569 19.9712 85.8182 -33.3094 39.007 -1.82057 -6.60829 0 7.95139e-016 -64.0292 68.4628 67.0945 -2.99723 12.0667 178.987 -12.7474 -1.59028e-015 3.97569e-016 14.8452 4.14919 -2.05464 90 7.14382e-017 -1.59028e-015 -9.60688 -7.29751 175.044 -18.0834 -1.59028e-015 3.97569e-016 14.2024 -4.56258 3.5463 90 7.10909e-022 -0 
209.51 88.1825 -167.439 -166.746 -84.5464 104.187 -0.971162 -1.39827 -0.924125 -1.9656 -2.78003 -1.87182 -1.9656 -2.78003 -1.87183 -8.30718e-012 -9.0191e-006 -5.27751e-005 18.4679 2.0032 -0.00984319 -176.924 -28.0353 -83.477 -29.2039 -42.5089 3.75066 -10.0238 -1.59028e-014 1.59028e-015 -28.2697 -54.4183 -31.7367 -178.553 19.9482 85.7667 -33.2414 38.9473 -1.86685 -6.58776 6.36111e-015 2.38542e-015 -63.9889 68.5 67.0507 -2.99158 12.0492 178.958 -12.7289 0 -7.95139e-016 14.834 4.14115 -2.00475 90 2.36057e-016 7.95139e-016 -9.62066 -7.26967 175.024 -18.0909 1.59028e-015 3.97569e-016 14.1978 -4.54423 3.56492 90 -3.63986e-020 7.95139e-016 
209.481 88.1812 -167.441 -166.735 -84.5411 104.196 -0.968303 -1.40061 -0.921643 -1.96213 -2.78905 -1.86018 -1.96213 -2.78905 -1.86019 -8.30768e-012 -9.0191e-006 -5.27751e-005 18.6081 1.97872 -0.0149978 -176.918 -28.0386 -83.4657 -29.1447 -42.6116 3.88346 -9.99553 9.54166e-015 3.18055e-015 -28.0925 -54.4464 -31.5545 -178.559 19.9258 85.7783 -33.1611 39.1435 -1.98498 -6.57009 6.36111e-015 -0 -64.05 68.4827 67.1111 -2.99772 12.0563 178.939 -12.7405 3.18055e-015 -0 14.8432 4.13776 -1.98436 90 4.78326e-016 -1.59028e-015 -9.63173 -7.28593 175.006 -18.0906 -1.59028e-015 -7.95139e-016 14.1948 -4.55168 3.58394 90 -9.47879e-022 -1.59028e-015 
